<?xml version="1.0" encoding="utf-8"?>
<!-- Generator: Adobe Illustrator 26.4.1, SVG Export Plug-In . SVG Version: 6.00 Build 0)  -->
<svg version="1.1" xmlns="http://www.w3.org/2000/svg" xmlns:xlink="http://www.w3.org/1999/xlink" width="50px"
  height="50px" viewBox="0,0,256,256">
  <g fill="#eeeeee" fill-rule="nonzero" stroke="none" stroke-width="1" stroke-linecap="butt" stroke-linejoin="miter"
    stroke-miterlimit="10" stroke-dasharray="" stroke-dashoffset="0" font-family="none" font-weight="none"
    font-size="none" text-anchor="none" style="mix-blend-mode: normal">
    <g transform="scale(5.12,5.12)">
      <path
        d="M5.25195,4l14.13867,42h4.2207l-14.13867,-42zM11.30664,4l14.13867,42h5.10938l14.13867,-42h-4.2207l-12.47266,37.05078l-12.47266,-37.05078zM34.41797,4l-8.39062,24.92188l2.11133,6.26953l10.5,-31.19141z">
      </path>
    </g>
  </g>
  <g fill="#ffffff" fill-rule="nonzero" stroke="none" stroke-width="1" stroke-linecap="butt" stroke-linejoin="miter"
    stroke-miterlimit="10" stroke-dasharray="" stroke-dashoffset="0" font-family="none" font-weight="none"
    font-size="none" text-anchor="none" style="mix-blend-mode: normal">
    <g>
      <path
        d="M52.026,134.834h13.5c-0.50667,7.05333 -3.10667,12.60333 -7.8,16.65c-4.7,4.05333 -10.89,6.08 -18.57,6.08v0c-8.4,0 -15.00667,-2.82667 -19.82,-8.48c-4.81333,-5.66 -7.22,-13.42333 -7.22,-23.29v0v-4.01c0,-6.29333 1.11,-11.84333 3.33,-16.65c2.22,-4.79333 5.39333,-8.47333 9.52,-11.04c4.12,-2.56667 8.91,-3.85 14.37,-3.85v0c7.56,0 13.65,2.02333 18.27,6.07c4.62,4.05333 7.29333,9.74 8.02,17.06v0h-13.5c-0.33333,-4.23333 -1.51333,-7.3 -3.54,-9.2c-2.02667,-1.90667 -5.11,-2.86 -9.25,-2.86v0c-4.5,0 -7.86667,1.61333 -10.1,4.84c-2.23333,3.22 -3.38,8.22333 -3.44,15.01v0v4.94c0,7.08 1.07333,12.25667 3.22,15.53c2.14,3.26667 5.52,4.9 10.14,4.9v0c4.17333,0 7.28667,-0.95 9.34,-2.85c2.06,-1.90667 3.23667,-4.85667 3.53,-8.85zM128.216,122.464v2.92c0,6.45333 -1.14,12.11 -3.42,16.97c-2.28,4.86 -5.54333,8.61 -9.79,11.25c-4.24667,2.64 -9.11333,3.96 -14.6,3.96v0c-5.42667,0 -10.27,-1.30667 -14.53,-3.92c-4.26667,-2.60667 -7.57,-6.33333 -9.91,-11.18c-2.33333,-4.84667 -3.51667,-10.42 -3.55,-16.72v0v-3.24c0,-6.44667 1.16333,-12.12333 3.49,-17.03c2.32,-4.9 5.60333,-8.66333 9.85,-11.29c4.24667,-2.62667 9.1,-3.94 14.56,-3.94c5.46,0 10.31333,1.31333 14.56,3.94c4.24667,2.62667 7.53,6.39 9.85,11.29c2.32667,4.90667 3.49,10.57 3.49,16.99zM114.536,125.614v-3.2c0,-6.86667 -1.23,-12.08667 -3.69,-15.66c-2.46,-3.56667 -5.97,-5.35 -10.53,-5.35v0c-4.53333,0 -8.03,1.76333 -10.49,5.29c-2.46,3.52667 -3.70333,8.69333 -3.73,15.5v0v3.19c0,6.69333 1.23,11.88333 3.69,15.57c2.46,3.69333 6,5.54 10.62,5.54v0c4.52667,0 8.00667,-1.77667 10.44,-5.33c2.43333,-3.56 3.66333,-8.74333 3.69,-15.55zM158.316,156.664h-20.29v-65.52h20.16c5.76,0 10.91333,1.29667 15.46,3.89c4.54,2.59333 8.08667,6.28333 10.64,11.07c2.54667,4.78667 3.82,10.22333 3.82,16.31v0v3.02c0,6.08667 -1.25,11.5 -3.75,16.24c-2.50667,4.74 -6.04,8.41667 -10.6,11.03c-4.56,2.60667 -9.70667,3.92667 -15.44,3.96zM158.186,102.074h-6.66v43.74h6.53c5.27333,0 9.30667,-1.72333 12.1,-5.17c2.78667,-3.44667 4.21333,-8.38333 4.28,-14.81v0v-3.46c0,-6.66 -1.38333,-11.70667 -4.15,-15.14c-2.75333,-3.44 -6.78667,-5.16 -12.1,-5.16zM237.336,117.694v10.58h-25.92v17.54h30.42v10.85h-43.92v-65.52h43.83v10.93h-30.33v15.62z">
      </path>
    </g>
  </g>
</svg>